# xmcd
#
# Track frame offsets: 
#        150
#        20858
#        40066
#        61242
#        78833
#        97808
#        119885
#        148351
#        168609
#        190317
#        209185
#        237391
#
# Disc length: 3468 seconds
#
# Revision: 2
# Processed by: cddbd v1.5.2PL0 Copyright (c) Steve Scherf et al.
# Submitted via: ExactAudioCopyFreeDBPlugin 1.0
#
DISCID=b70d8a0c
DTITLE=Joe Henry - Civilians
DYEAR=2007
DGENRE=Alternative
TTITLE0=Civilians
TTITLE1=Parker's Mood
TTITLE2=Civil War
TTITLE3=Time Is A Lion
TTITLE4=You Can't Fail Me Now
TTITLE5=Scare Me To Death
TTITLE6=Our Song
TTITLE7=Wave
TTITLE8=Love Is Enough
TTITLE9=I Will Write My Book
TTITLE10=Shut Me Up
TTITLE11=God Only Knows
EXTD=YEAR: 2007
EXTT0=
EXTT1=
EXTT2=
EXTT3=
EXTT4=
EXTT5=
EXTT6=
EXTT7=
EXTT8=
EXTT9=
EXTT10=
EXTT11=
PLAYORDER=
